# xmcd
#
# Track frame offsets: 
#        150
#        16582
#        27962
#        42627
#        58550
#        78212
#        99275
#        114372
#        133110
#        148275
#
# Disc length: 2158 seconds
#
# Revision: 1
# Processed by: cddbd v1.5.2PL0 Copyright (c) Steve Scherf et al.
# Submitted via: ExactAudioCopy v1.0b1
#
DISCID=7c086c0a
DTITLE=Various Artist - Denim and Diamonds
DYEAR=1994
DGENRE=Country
TTITLE0=Steve Wariner - Baby I'm Yours
TTITLE1=Highway 101 - Bing Bang Boom
TTITLE2=Lionel Cartwright - My Heart Is Set On You
TTITLE3=Wylie and The Wild West Show - Talking About My Baby
TTITLE4=Brooks and Dunn - Neon Moon
TTITLE5=Clarence Carter - Strokin'
TTITLE6=Tim Mensy - This Ol' Heart
TTITLE7=Dangerous Man (Instrumental)
TTITLE8=Patty Loveless - Jealous Bone
TTITLE9=Honky Tonk Blues (Instrumental)
EXTD=
EXTT0=
EXTT1=
EXTT2=
EXTT3=
EXTT4=
EXTT5=
EXTT6=
EXTT7=
EXTT8=
EXTT9=
PLAYORDER=
